solid ./gosper.stl
facet normal -7.857142 6.185896 0.000000
  outer loop
    vertex 1.000000 0.000000 0.000000
    vertex 0.381410 -0.785714 0.000000
    vertex 1.000000 0.000000 10.000000
  endloop
endfacet
facet normal -1.428571 -9.897432 0.000000
  outer loop
    vertex 1.981981 0.188982 0.000000
    vertex 2.971724 0.046125 0.000000
    vertex 1.981981 0.188982 10.000000
  endloop
endfacet
facet normal -1.428571 -9.897433 0.000000
  outer loop
    vertex 1.327327 0.944911 0.000000
    vertex 2.317070 0.802054 0.000000
    vertex 1.327327 0.944911 10.000000
  endloop
endfacet
facet normal -1.428571 -9.897433 0.000000
  outer loop
    vertex 0.672673 1.700840 0.000000
    vertex 1.662416 1.557983 0.000000
    vertex 0.672673 1.700840 10.000000
  endloop
endfacet
facet normal 9.285715 3.711537 -0.000000
  outer loop
    vertex 0.018019 2.456769 0.000000
    vertex -0.353134 3.385340 0.000000
    vertex 0.018019 2.456769 10.000000
  endloop
endfacet
facet normal 9.103712 4.137924 -0.000000
  outer loop
    vertex -0.309307 1.511858 0.000000
    vertex -0.723100 2.422229 0.000000
    vertex -0.309307 1.511858 10.000000
  endloop
endfacet
facet normal -1.428571 -9.897433 0.000000
  outer loop
    vertex -0.500000 0.866025 0.000000
    vertex 0.489743 0.723168 0.000000
    vertex -0.500000 0.866025 10.000000
  endloop
endfacet
facet normal 9.285713 3.711537 -0.000000
  outer loop
    vertex -1.154654 1.621954 0.000000
    vertex -1.525807 2.550526 0.000000
    vertex -1.154654 1.621954 10.000000
  endloop
endfacet
facet normal 9.285714 3.711537 -0.000000
  outer loop
    vertex -1.481981 0.677043 0.000000
    vertex -1.853134 1.605615 0.000000
    vertex -1.481981 0.677043 10.000000
  endloop
endfacet
facet normal 9.285715 3.711538 -0.000000
  outer loop
    vertex -1.809307 -0.267868 0.000000
    vertex -2.180461 0.660703 0.000000
    vertex -1.809307 -0.267868 10.000000
  endloop
endfacet
facet normal -7.857142 6.185896 0.000000
  outer loop
    vertex -2.136634 -1.212779 0.000000
    vertex -2.755224 -1.998493 0.000000
    vertex -2.136634 -1.212779 10.000000
  endloop
endfacet
facet normal -8.135405 5.815084 0.000000
  outer loop
    vertex -1.154654 -1.023797 0.000000
    vertex -1.736162 -1.837337 0.000000
    vertex -1.154654 -1.023797 10.000000
  endloop
endfacet
facet normal 9.285714 3.711538 -0.000000
  outer loop
    vertex -0.500000 -0.866025 0.000000
    vertex -0.871154 0.062546 0.000000
    vertex -0.500000 -0.866025 10.000000
  endloop
endfacet
facet normal -7.857142 6.185896 0.000000
  outer loop
    vertex -0.827327 -1.810937 0.000000
    vertex -1.445916 -2.596651 0.000000
    vertex -0.827327 -1.810937 10.000000
  endloop
endfacet
facet normal -7.857142 6.185896 0.000000
  outer loop
    vertex 0.154654 -1.621954 0.000000
    vertex -0.463936 -2.407669 0.000000
    vertex 0.154654 -1.621954 10.000000
  endloop
endfacet
facet normal -7.857142 6.185896 0.000000
  outer loop
    vertex 1.136634 -1.432972 0.000000
    vertex 0.518045 -2.218686 0.000000
    vertex 1.136634 -1.432972 10.000000
  endloop
endfacet
facet normal -1.428572 -9.897432 0.000000
  outer loop
    vertex 2.118615 -1.243990 0.000000
    vertex 3.108358 -1.386847 0.000000
    vertex 2.118615 -1.243990 10.000000
  endloop
endfacet
facet normal -0.968309 -9.953009 0.000000
  outer loop
    vertex 1.463961 -0.488061 0.000000
    vertex 2.459262 -0.584892 0.000000
    vertex 1.463961 -0.488061 10.000000
  endloop
endfacet
facet normal -1.428571 -9.897433 0.866025
  outer loop
    vertex 0.381410 -0.785714 0.000000
    vertex 1.371154 -0.928571 0.000000
    vertex 1.000000 0.000000 10.000000
  endloop
endfacet
facet normal 9.285714 3.711538 0.866025
  outer loop
    vertex 2.971724 0.046125 0.000000
    vertex 2.600570 0.974697 0.000000
    vertex 1.981981 0.188982 10.000000
  endloop
endfacet
facet normal 9.285715 3.711538 0.866025
  outer loop
    vertex 2.317070 0.802054 0.000000
    vertex 1.945916 1.730626 0.000000
    vertex 1.327327 0.944911 10.000000
  endloop
endfacet
facet normal 9.285713 3.711537 0.866025
  outer loop
    vertex 1.662416 1.557983 0.000000
    vertex 1.291263 2.486554 0.000000
    vertex 0.672673 1.700840 10.000000
  endloop
endfacet
facet normal -7.857141 6.185895 0.866025
  outer loop
    vertex -0.353134 3.385340 0.000000
    vertex -0.971724 2.599626 0.000000
    vertex 0.018019 2.456769 10.000000
  endloop
endfacet
facet normal -8.135404 5.815084 0.866025
  outer loop
    vertex -0.723100 2.422229 0.000000
    vertex -1.304608 1.608689 0.000000
    vertex -0.309307 1.511858 10.000000
  endloop
endfacet
facet normal 9.285715 3.711537 0.866025
  outer loop
    vertex 0.489743 0.723168 0.000000
    vertex 0.118590 1.651740 0.000000
    vertex -0.500000 0.866025 10.000000
  endloop
endfacet
facet normal -7.857141 6.185896 0.866025
  outer loop
    vertex -1.525807 2.550526 0.000000
    vertex -2.144397 1.764812 0.000000
    vertex -1.154654 1.621954 10.000000
  endloop
endfacet
facet normal -7.857142 6.185895 0.866025
  outer loop
    vertex -1.853134 1.605615 0.000000
    vertex -2.471724 0.819900 0.000000
    vertex -1.481981 0.677043 10.000000
  endloop
endfacet
facet normal -7.857142 6.185894 0.866025
  outer loop
    vertex -2.180461 0.660703 0.000000
    vertex -2.799051 -0.125011 0.000000
    vertex -1.809307 -0.267868 10.000000
  endloop
endfacet
facet normal -1.428571 -9.897433 0.866025
  outer loop
    vertex -2.755224 -1.998493 0.000000
    vertex -1.765480 -2.141351 0.000000
    vertex -2.136634 -1.212779 10.000000
  endloop
endfacet
facet normal -0.968308 -9.953009 0.866025
  outer loop
    vertex -1.736162 -1.837337 0.000000
    vertex -0.740861 -1.934168 0.000000
    vertex -1.154654 -1.023797 10.000000
  endloop
endfacet
facet normal -7.857142 6.185896 0.866025
  outer loop
    vertex -0.871154 0.062546 0.000000
    vertex -1.489743 -0.723168 0.000000
    vertex -0.500000 -0.866025 10.000000
  endloop
endfacet
facet normal -1.428571 -9.897433 0.866025
  outer loop
    vertex -1.445916 -2.596651 0.000000
    vertex -0.456173 -2.739508 0.000000
    vertex -0.827327 -1.810937 10.000000
  endloop
endfacet
facet normal -1.428571 -9.897433 0.866025
  outer loop
    vertex -0.463936 -2.407669 0.000000
    vertex 0.525807 -2.550526 0.000000
    vertex 0.154654 -1.621954 10.000000
  endloop
endfacet
facet normal -1.428573 -9.897433 0.866026
  outer loop
    vertex 0.518045 -2.218686 0.000000
    vertex 1.507788 -2.361544 0.000000
    vertex 1.136634 -1.432972 10.000000
  endloop
endfacet
facet normal 9.285715 3.711536 0.866025
  outer loop
    vertex 3.108358 -1.386847 0.000000
    vertex 2.737204 -0.458276 0.000000
    vertex 2.118615 -1.243990 10.000000
  endloop
endfacet
facet normal 9.103712 4.137924 0.866025
  outer loop
    vertex 2.459262 -0.584892 0.000000
    vertex 2.045470 0.325479 0.000000
    vertex 1.463961 -0.488061 10.000000
  endloop
endfacet
facet normal -1.428571 -9.897433 0.866025
  outer loop
    vertex 1.371154 -0.928571 0.000000
    vertex 2.360897 -1.071429 0.000000
    vertex 1.000000 0.000000 10.000000
  endloop
endfacet
facet normal 9.285715 3.711536 0.866025
  outer loop
    vertex 2.600570 0.974697 0.000000
    vertex 2.229416 1.903268 0.000000
    vertex 1.981981 0.188982 10.000000
  endloop
endfacet
facet normal 9.285713 3.711537 0.866025
  outer loop
    vertex 1.945916 1.730626 0.000000
    vertex 1.574763 2.659197 0.000000
    vertex 1.327327 0.944911 10.000000
  endloop
endfacet
facet normal 9.285715 3.711538 0.866025
  outer loop
    vertex 1.291263 2.486554 0.000000
    vertex 0.920109 3.415126 0.000000
    vertex 0.672673 1.700840 10.000000
  endloop
endfacet
facet normal -7.857144 6.185896 0.866026
  outer loop
    vertex -0.971724 2.599626 0.000000
    vertex -1.590313 1.813912 0.000000
    vertex 0.018019 2.456769 10.000000
  endloop
endfacet
facet normal -8.135404 5.815084 0.866025
  outer loop
    vertex -1.304608 1.608689 0.000000
    vertex -1.886117 0.795148 0.000000
    vertex -0.309307 1.511858 10.000000
  endloop
endfacet
facet normal 9.285713 3.711537 0.866025
  outer loop
    vertex 0.118590 1.651740 0.000000
    vertex -0.252564 2.580311 0.000000
    vertex -0.500000 0.866025 10.000000
  endloop
endfacet
facet normal -7.857143 6.185896 0.866026
  outer loop
    vertex -2.144397 1.764812 0.000000
    vertex -2.762987 0.979097 0.000000
    vertex -1.154654 1.621954 10.000000
  endloop
endfacet
facet normal -7.857143 6.185896 0.866025
  outer loop
    vertex -2.471724 0.819900 0.000000
    vertex -3.090313 0.034186 0.000000
    vertex -1.481981 0.677043 10.000000
  endloop
endfacet
facet normal -7.857142 6.185896 0.866025
  outer loop
    vertex -2.799051 -0.125011 0.000000
    vertex -3.417640 -0.910725 0.000000
    vertex -1.809307 -0.267868 10.000000
  endloop
endfacet
facet normal -1.428573 -9.897433 0.866025
  outer loop
    vertex -1.765480 -2.141351 0.000000
    vertex -0.775737 -2.284208 0.000000
    vertex -2.136634 -1.212779 10.000000
  endloop
endfacet
facet normal -0.968310 -9.953009 0.866025
  outer loop
    vertex -0.740861 -1.934168 0.000000
    vertex 0.254440 -2.030999 0.000000
    vertex -1.154654 -1.023797 10.000000
  endloop
endfacet
facet normal -7.857142 6.185895 0.866025
  outer loop
    vertex -1.489743 -0.723168 0.000000
    vertex -2.108333 -1.508883 0.000000
    vertex -0.500000 -0.866025 10.000000
  endloop
endfacet
facet normal -1.428573 -9.897433 0.866025
  outer loop
    vertex -0.456173 -2.739508 0.000000
    vertex 0.533570 -2.882365 0.000000
    vertex -0.827327 -1.810937 10.000000
  endloop
endfacet
facet normal -1.428573 -9.897433 0.866025
  outer loop
    vertex 0.525807 -2.550526 0.000000
    vertex 1.515551 -2.693383 0.000000
    vertex 0.154654 -1.621954 10.000000
  endloop
endfacet
facet normal -1.428571 -9.897432 0.866026
  outer loop
    vertex 1.507788 -2.361544 0.000000
    vertex 2.497531 -2.504401 0.000000
    vertex 1.136634 -1.432972 10.000000
  endloop
endfacet
facet normal 9.285715 3.711538 0.866026
  outer loop
    vertex 2.737204 -0.458276 0.000000
    vertex 2.366050 0.470296 0.000000
    vertex 2.118615 -1.243990 10.000000
  endloop
endfacet
facet normal 9.103712 4.137925 0.866025
  outer loop
    vertex 2.045470 0.325479 0.000000
    vertex 1.631677 1.235851 0.000000
    vertex 1.463961 -0.488061 10.000000
  endloop
endfacet
facet normal -1.428572 -9.897432 0.866025
  outer loop
    vertex 2.360897 -1.071429 0.000000
    vertex 3.350640 -1.214286 0.000000
    vertex 1.000000 0.000000 10.000000
  endloop
endfacet
facet normal 9.285713 3.711538 0.866026
  outer loop
    vertex 2.229416 1.903268 0.000000
    vertex 1.858263 2.831839 0.000000
    vertex 1.981981 0.188982 10.000000
  endloop
endfacet
facet normal 9.285715 3.711538 0.866026
  outer loop
    vertex 1.574763 2.659197 0.000000
    vertex 1.203609 3.587768 0.000000
    vertex 1.327327 0.944911 10.000000
  endloop
endfacet
facet normal 9.285712 3.711537 0.866025
  outer loop
    vertex 0.920109 3.415126 0.000000
    vertex 0.548955 4.343697 0.000000
    vertex 0.672673 1.700840 10.000000
  endloop
endfacet
facet normal -7.857142 6.185896 0.866025
  outer loop
    vertex -1.590313 1.813912 0.000000
    vertex -2.208903 1.028198 0.000000
    vertex 0.018019 2.456769 10.000000
  endloop
endfacet
facet normal -8.135404 5.815085 0.866025
  outer loop
    vertex -1.886117 0.795148 0.000000
    vertex -2.467625 -0.018392 0.000000
    vertex -0.309307 1.511858 10.000000
  endloop
endfacet
facet normal 9.285715 3.711537 0.866025
  outer loop
    vertex -0.252564 2.580311 0.000000
    vertex -0.623718 3.508883 0.000000
    vertex -0.500000 0.866025 10.000000
  endloop
endfacet
facet normal -7.857142 6.185894 0.866026
  outer loop
    vertex -2.762987 0.979097 0.000000
    vertex -3.381576 0.193383 0.000000
    vertex -1.154654 1.621954 10.000000
  endloop
endfacet
facet normal -7.857142 6.185896 0.866025
  outer loop
    vertex -3.090313 0.034186 0.000000
    vertex -3.708903 -0.751528 0.000000
    vertex -1.481981 0.677043 10.000000
  endloop
endfacet
facet normal -7.857142 6.185894 0.866025
  outer loop
    vertex -3.417640 -0.910725 0.000000
    vertex -4.036230 -1.696439 0.000000
    vertex -1.809307 -0.267868 10.000000
  endloop
endfacet
facet normal -1.428571 -9.897433 0.866026
  outer loop
    vertex -0.775737 -2.284208 0.000000
    vertex 0.214006 -2.427065 0.000000
    vertex -2.136634 -1.212779 10.000000
  endloop
endfacet
facet normal -0.968308 -9.953009 0.866026
  outer loop
    vertex 0.254440 -2.030999 0.000000
    vertex 1.249740 -2.127830 0.000000
    vertex -1.154654 -1.023797 10.000000
  endloop
endfacet
facet normal -7.857144 6.185896 0.866025
  outer loop
    vertex -2.108333 -1.508883 0.000000
    vertex -2.726923 -2.294597 0.000000
    vertex -0.500000 -0.866025 10.000000
  endloop
endfacet
facet normal -1.428571 -9.897433 0.866026
  outer loop
    vertex 0.533570 -2.882365 0.000000
    vertex 1.523314 -3.025222 0.000000
    vertex -0.827327 -1.810937 10.000000
  endloop
endfacet
facet normal -1.428571 -9.897433 0.866026
  outer loop
    vertex 1.515551 -2.693383 0.000000
    vertex 2.505294 -2.836240 0.000000
    vertex 0.154654 -1.621954 10.000000
  endloop
endfacet
facet normal -1.428571 -9.897434 0.866026
  outer loop
    vertex 2.497531 -2.504401 0.000000
    vertex 3.487275 -2.647258 0.000000
    vertex 1.136634 -1.432972 10.000000
  endloop
endfacet
facet normal 9.285714 3.711537 0.866025
  outer loop
    vertex 2.366050 0.470296 0.000000
    vertex 1.994897 1.398867 0.000000
    vertex 2.118615 -1.243990 10.000000
  endloop
endfacet
facet normal 9.103712 4.137925 0.866026
  outer loop
    vertex 1.631677 1.235851 0.000000
    vertex 1.217885 2.146222 0.000000
    vertex 1.463961 -0.488061 10.000000
  endloop
endfacet
facet normal 9.285715 3.711536 1.732051
  outer loop
    vertex 3.350640 -1.214286 0.000000
    vertex 2.979487 -0.285714 0.000000
    vertex 1.000000 0.000000 10.000000
  endloop
endfacet
facet normal -7.857141 6.185895 1.732051
  outer loop
    vertex 1.858263 2.831839 0.000000
    vertex 1.239673 2.046125 0.000000
    vertex 1.981981 0.188982 10.000000
  endloop
endfacet
facet normal -7.857144 6.185895 1.732051
  outer loop
    vertex 1.203609 3.587768 0.000000
    vertex 0.585019 2.802054 0.000000
    vertex 1.327327 0.944911 10.000000
  endloop
endfacet
facet normal -7.857141 6.185896 1.732051
  outer loop
    vertex 0.548955 4.343697 0.000000
    vertex -0.069634 3.557983 0.000000
    vertex 0.672673 1.700840 10.000000
  endloop
endfacet
facet normal -1.428571 -9.897434 1.732051
  outer loop
    vertex -2.208903 1.028198 0.000000
    vertex -1.219160 0.885341 0.000000
    vertex 0.018019 2.456769 10.000000
  endloop
endfacet
facet normal -0.968309 -9.953011 1.732051
  outer loop
    vertex -2.467625 -0.018392 0.000000
    vertex -1.472324 -0.115223 0.000000
    vertex -0.309307 1.511858 10.000000
  endloop
endfacet
facet normal -7.857141 6.185896 1.732051
  outer loop
    vertex -0.623718 3.508883 0.000000
    vertex -1.242308 2.723168 0.000000
    vertex -0.500000 0.866025 10.000000
  endloop
endfacet
facet normal -1.428571 -9.897432 1.732051
  outer loop
    vertex -3.381576 0.193383 0.000000
    vertex -2.391833 0.050526 0.000000
    vertex -1.154654 1.621954 10.000000
  endloop
endfacet
facet normal -1.428571 -9.897434 1.732051
  outer loop
    vertex -3.708903 -0.751528 0.000000
    vertex -2.719160 -0.894385 0.000000
    vertex -1.481981 0.677043 10.000000
  endloop
endfacet
facet normal -1.428572 -9.897432 1.732051
  outer loop
    vertex -4.036230 -1.696439 0.000000
    vertex -3.046486 -1.839297 0.000000
    vertex -1.809307 -0.267868 10.000000
  endloop
endfacet
facet normal 9.285715 3.711537 1.732051
  outer loop
    vertex 0.214006 -2.427065 0.000000
    vertex -0.157148 -1.498493 0.000000
    vertex -2.136634 -1.212779 10.000000
  endloop
endfacet
facet normal 9.103713 4.137924 1.732051
  outer loop
    vertex 1.249740 -2.127830 0.000000
    vertex 0.835948 -1.217459 0.000000
    vertex -1.154654 -1.023797 10.000000
  endloop
endfacet
facet normal -1.428571 -9.897433 1.732051
  outer loop
    vertex -2.726923 -2.294597 0.000000
    vertex -1.737179 -2.437454 0.000000
    vertex -0.500000 -0.866025 10.000000
  endloop
endfacet
facet normal 9.285715 3.711537 1.732051
  outer loop
    vertex 1.523314 -3.025222 0.000000
    vertex 1.152160 -2.096651 0.000000
    vertex -0.827327 -1.810937 10.000000
  endloop
endfacet
facet normal 9.285715 3.711538 1.732051
  outer loop
    vertex 2.505294 -2.836240 0.000000
    vertex 2.134140 -1.907669 0.000000
    vertex 0.154654 -1.621954 10.000000
  endloop
endfacet
facet normal 9.285715 3.711538 1.732051
  outer loop
    vertex 3.487275 -2.647258 0.000000
    vertex 3.116121 -1.718686 0.000000
    vertex 1.136634 -1.432972 10.000000
  endloop
endfacet
facet normal -7.857142 6.185895 1.732051
  outer loop
    vertex 1.994897 1.398867 0.000000
    vertex 1.376307 0.613153 0.000000
    vertex 2.118615 -1.243990 10.000000
  endloop
endfacet
facet normal -8.135404 5.815084 1.732051
  outer loop
    vertex 1.217885 2.146222 0.000000
    vertex 0.636376 1.332682 0.000000
    vertex 1.463961 -0.488061 10.000000
  endloop
endfacet
facet normal 4.746965 9.975061 0.654654
  outer loop
    vertex 2.979487 -0.285714 0.000000
    vertex 1.981981 0.188982 0.000000
    vertex 1.000000 0.000000 10.000000
  endloop
endfacet
facet normal -11.012139 -0.876539 0.654654
  outer loop
    vertex 1.239673 2.046125 0.000000
    vertex 1.327327 0.944911 0.000000
    vertex 1.981981 0.188982 10.000000
  endloop
endfacet
facet normal -11.012138 -0.876538 0.654654
  outer loop
    vertex 0.585019 2.802054 0.000000
    vertex 0.672673 1.700840 0.000000
    vertex 1.327327 0.944911 10.000000
  endloop
endfacet
facet normal -11.012139 -0.876538 0.654654
  outer loop
    vertex -0.069634 3.557983 0.000000
    vertex 0.018019 2.456769 0.000000
    vertex 0.672673 1.700840 10.000000
  endloop
endfacet
facet normal 6.265173 -9.098522 0.654654
  outer loop
    vertex -1.219160 0.885341 0.000000
    vertex -0.309307 1.511858 0.000000
    vertex 0.018019 2.456769 10.000000
  endloop
endfacet
facet normal 9.812483 -9.723242 0.440842
  outer loop
    vertex -1.472324 -0.115223 0.000000
    vertex -0.500000 0.866025 0.000000
    vertex -0.309307 1.511858 10.000000
  endloop
endfacet
facet normal -11.012140 -0.876539 0.654654
  outer loop
    vertex -1.242308 2.723168 0.000000
    vertex -1.154654 1.621954 0.000000
    vertex -0.500000 0.866025 10.000000
  endloop
endfacet
facet normal 6.265173 -9.098522 0.654654
  outer loop
    vertex -2.391833 0.050526 0.000000
    vertex -1.481981 0.677043 0.000000
    vertex -1.154654 1.621954 10.000000
  endloop
endfacet
facet normal 6.265174 -9.098522 0.654654
  outer loop
    vertex -2.719160 -0.894385 0.000000
    vertex -1.809307 -0.267868 0.000000
    vertex -1.481981 0.677043 10.000000
  endloop
endfacet
facet normal 6.265174 -9.098522 0.654654
  outer loop
    vertex -3.046486 -1.839297 0.000000
    vertex -2.136634 -1.212779 0.000000
    vertex -1.809307 -0.267868 10.000000
  endloop
endfacet
facet normal 4.746965 9.975061 0.654654
  outer loop
    vertex -0.157148 -1.498493 0.000000
    vertex -1.154654 -1.023797 0.000000
    vertex -2.136634 -1.212779 10.000000
  endloop
endfacet
facet normal 3.514333 13.359480 0.440842
  outer loop
    vertex 0.835948 -1.217459 0.000000
    vertex -0.500000 -0.866025 0.000000
    vertex -1.154654 -1.023797 10.000000
  endloop
endfacet
facet normal 6.265174 -9.098523 0.654654
  outer loop
    vertex -1.737179 -2.437454 0.000000
    vertex -0.827327 -1.810937 0.000000
    vertex -0.500000 -0.866025 10.000000
  endloop
endfacet
facet normal 4.746965 9.975061 0.654654
  outer loop
    vertex 1.152160 -2.096651 0.000000
    vertex 0.154654 -1.621954 0.000000
    vertex -0.827327 -1.810937 10.000000
  endloop
endfacet
facet normal 4.746965 9.975060 0.654654
  outer loop
    vertex 2.134140 -1.907669 0.000000
    vertex 1.136634 -1.432972 0.000000
    vertex 0.154654 -1.621954 10.000000
  endloop
endfacet
facet normal 4.746965 9.975061 0.654654
  outer loop
    vertex 3.116121 -1.718686 0.000000
    vertex 2.118615 -1.243990 0.000000
    vertex 1.136634 -1.432972 10.000000
  endloop
endfacet
facet normal -11.012139 -0.876538 0.654654
  outer loop
    vertex 1.376307 0.613153 0.000000
    vertex 1.463961 -0.488061 0.000000
    vertex 2.118615 -1.243990 10.000000
  endloop
endfacet
facet normal -13.326816 -3.636239 0.440842
  outer loop
    vertex 0.636376 1.332682 0.000000
    vertex 1.000000 0.000000 0.000000
    vertex 1.463961 -0.488061 10.000000
  endloop
endfacet
facet normal 1.889822 -9.819805 0.000000
  outer loop
    vertex 1.000000 0.000000 10.000000
    vertex 1.981981 0.188982 0.000000
    vertex 1.981981 0.188982 10.000000
  endloop
endfacet
facet normal 7.559289 6.546536 0.000000
  outer loop
    vertex 1.981981 0.188982 10.000000
    vertex 1.327327 0.944911 0.000000
    vertex 1.327327 0.944911 10.000000
  endloop
endfacet
facet normal 7.559289 6.546537 0.000000
  outer loop
    vertex 1.327327 0.944911 10.000000
    vertex 0.672673 1.700840 0.000000
    vertex 0.672673 1.700840 10.000000
  endloop
endfacet
facet normal 7.559289 6.546536 0.000000
  outer loop
    vertex 0.672673 1.700840 10.000000
    vertex 0.018019 2.456769 0.000000
    vertex 0.018019 2.456769 10.000000
  endloop
endfacet
facet normal -9.449111 3.273268 0.000000
  outer loop
    vertex 0.018019 2.456769 10.000000
    vertex -0.309307 1.511858 0.000000
    vertex -0.309307 1.511858 10.000000
  endloop
endfacet
facet normal -6.458325 1.906927 0.000000
  outer loop
    vertex -0.309307 1.511858 10.000000
    vertex -0.500000 0.866025 0.000000
    vertex -0.500000 0.866025 10.000000
  endloop
endfacet
facet normal 7.559289 6.546536 0.000000
  outer loop
    vertex -0.500000 0.866025 10.000000
    vertex -1.154654 1.621954 0.000000
    vertex -1.154654 1.621954 10.000000
  endloop
endfacet
facet normal -9.449112 3.273269 0.000000
  outer loop
    vertex -1.154654 1.621954 10.000000
    vertex -1.481981 0.677043 0.000000
    vertex -1.481981 0.677043 10.000000
  endloop
endfacet
facet normal -9.449111 3.273268 0.000000
  outer loop
    vertex -1.481981 0.677043 10.000000
    vertex -1.809307 -0.267868 0.000000
    vertex -1.809307 -0.267868 10.000000
  endloop
endfacet
facet normal -9.449111 3.273268 0.000000
  outer loop
    vertex -1.809307 -0.267868 10.000000
    vertex -2.136634 -1.212779 0.000000
    vertex -2.136634 -1.212779 10.000000
  endloop
endfacet
facet normal 1.889822 -9.819804 0.000000
  outer loop
    vertex -2.136634 -1.212779 10.000000
    vertex -1.154654 -1.023797 0.000000
    vertex -1.154654 -1.023797 10.000000
  endloop
endfacet
facet normal 1.577715 -6.546536 0.000000
  outer loop
    vertex -1.154654 -1.023797 10.000000
    vertex -0.500000 -0.866025 0.000000
    vertex -0.500000 -0.866025 10.000000
  endloop
endfacet
facet normal -9.449112 3.273268 0.000000
  outer loop
    vertex -0.500000 -0.866025 10.000000
    vertex -0.827327 -1.810937 0.000000
    vertex -0.827327 -1.810937 10.000000
  endloop
endfacet
facet normal 1.889822 -9.819805 0.000000
  outer loop
    vertex -0.827327 -1.810937 10.000000
    vertex 0.154654 -1.621954 0.000000
    vertex 0.154654 -1.621954 10.000000
  endloop
endfacet
facet normal 1.889822 -9.819805 0.000000
  outer loop
    vertex 0.154654 -1.621954 10.000000
    vertex 1.136634 -1.432972 0.000000
    vertex 1.136634 -1.432972 10.000000
  endloop
endfacet
facet normal 1.889822 -9.819804 0.000000
  outer loop
    vertex 1.136634 -1.432972 10.000000
    vertex 2.118615 -1.243990 0.000000
    vertex 2.118615 -1.243990 10.000000
  endloop
endfacet
facet normal 7.559289 6.546536 0.000000
  outer loop
    vertex 2.118615 -1.243990 10.000000
    vertex 1.463961 -0.488061 0.000000
    vertex 1.463961 -0.488061 10.000000
  endloop
endfacet
facet normal 4.880609 4.639610 0.000000
  outer loop
    vertex 1.463961 -0.488061 10.000000
    vertex 1.000000 0.000000 0.000000
    vertex 1.000000 0.000000 10.000000
  endloop
endfacet
endsolid ./gosper.stl
