<?xml version="1.0" standalone="no"?>
<!DOCTYPE svg PUBLIC "-//W3C//DTD SVG 1.1//EN" "http://www.w3.org/Graphics/SVG/1.1/DTD/svg11.dtd">
<svg width="100mm" height="92mm" viewBox="-50 -46 100 92" xmlns="http://www.w3.org/2000/svg" version="1.1">
<title>OpenSCAD Model</title>
<path d="
M 19.1582,45.5437 L 23.1347,44.2517 L 26.7557,42.1611 L 29.8629,39.3634 L 32.3205,35.9808 L 47.3205,10
 L 49.0211,6.18034 L 49.8904,2.09058 L 49.8904,-2.09056 L 49.0211,-6.18034 L 47.3205,-10 L 32.3205,-35.9808
 L 29.8629,-39.3634 L 26.7557,-42.1611 L 23.1347,-44.2517 L 19.1582,-45.5437 L 15,-45.9808 L -15,-45.9808
 L -19.1582,-45.5437 L -23.1347,-44.2517 L -26.7557,-42.1611 L -29.8629,-39.3634 L -32.3205,-35.9808 L -47.3205,-10
 L -49.0211,-6.18034 L -49.8904,-2.09058 L -49.8904,2.09056 L -49.0211,6.18034 L -47.3205,10 L -32.3205,35.9808
 L -29.8629,39.3634 L -26.7557,42.1611 L -23.1347,44.2517 L -19.1582,45.5437 L -15,45.9808 L 15,45.9808
 z
" stroke="black" fill="white" stroke-width="0.5"/>
<path d="
M -1.77141,35.2497 L -0.333667,33.9855 L 0.351895,32.1979 L 0.342551,31.629 L 0.450551,30.3505 L 0.757013,29.4437
 L 1.27166,28.6365 L 1.96445,27.9761 L 3.21672,27.2593 L 3.18682,27.207 L 4.21496,26.6185 L 5.24418,25.0041
 L 5.40532,23.0966 L 5.35054,22.7513 L 5.43111,21.7975 L 5.73762,20.8907 L 6.25224,20.0836 L 6.94505,19.4231
 L 7.77576,18.9476 L 8.77466,18.6623 L 9.49458,18.6069 L 10.081,18.6091 L 11.2728,18.7583 L 12.1666,19.101
 L 12.9523,19.6477 L 13.5844,20.3665 L 14.026,21.2158 L 14.2517,22.146 L 14.2477,23.196 L 14.699,25.0566
 L 15.9632,26.4944 L 18.2328,27.2109 L 21.1433,27.2217 L 23.0039,26.7704 L 24.4416,25.5062 L 25.1272,23.7186
 L 25.1178,23.1497 L 25.2258,21.8712 L 25.5323,20.9644 L 26.0469,20.1573 L 26.7397,19.4968 L 27.651,18.9752
 L 29.0367,17.6541 L 29.6497,15.8403 L 29.1354,13.5165 L 27.6896,10.9906 L 26.3685,9.60491 L 24.5548,8.99189
 L 22.6639,9.29198 L 22.1759,9.58455 L 21.0147,10.1303 L 20.0761,10.3182 L 19.1198,10.2761 L 18.2014,10.0064
 L 16.9545,9.2803 L 16.9242,9.33232 L 15.9006,8.73621 L 13.9879,8.65199 L 12.2551,9.46632 L 11.9836,9.68629
 L 11.1173,10.0934 L 10.1787,10.2814 L 9.2224,10.2393 L 8.30402,9.96957 L 7.47686,9.4879 L 6.73033,8.76548
 L 6.32234,8.16968 L 6.03094,7.66059 L 5.56435,6.55405 L 5.41429,5.60858 L 5.49488,4.65481 L 5.80135,3.74804
 L 6.316,2.94085 L 7.00877,2.28036 L 8.26104,1.56356 L 8.23114,1.51132 L 9.25925,0.922826 L 10.2885,-0.691513
 L 10.4497,-2.59922 L 10.3949,-2.94429 L 10.4755,-3.89812 L 10.7819,-4.80492 L 11.2966,-5.61205 L 11.9894,-6.27256
 L 12.8201,-6.74808 L 13.8188,-7.03336 L 14.5391,-7.08881 L 15.1255,-7.08664 L 16.3171,-6.93745 L 17.2109,-6.59467
 L 17.9966,-6.04803 L 18.6287,-5.32914 L 19.0704,-4.47993 L 19.296,-3.54975 L 19.2907,-2.10681 L 19.3509,-2.10658
 L 19.3465,-0.921879 L 20.2299,0.776631 L 21.8014,1.86999 L 22.1277,1.99509 L 22.4449,2.21579 L 24.2324,2.90136
 L 26.7165,2.40386 L 28.0558,1.63723 L 28.0259,1.58499 L 29.054,0.996516 L 30.0833,-0.61781 L 30.2444,-2.52555
 L 30.1896,-2.8707 L 30.2702,-3.82451 L 30.5767,-4.73124 L 31.0913,-5.53843 L 31.7841,-6.19889 L 32.6954,-6.72052
 L 34.0811,-8.04161 L 34.6941,-9.85534 L 34.1798,-12.1791 L 32.734,-14.7051 L 31.4129,-16.0908 L 29.5992,-16.7038
 L 27.7083,-16.4037 L 27.2203,-16.1112 L 26.0591,-15.5654 L 25.1205,-15.3775 L 24.1642,-15.4196 L 23.2458,-15.6893
 L 21.9989,-16.4154 L 21.9686,-16.3634 L 20.945,-16.9595 L 19.0323,-17.0437 L 17.2995,-16.2294 L 17.028,-16.0094
 L 16.1617,-15.6023 L 15.2231,-15.4143 L 14.2668,-15.4564 L 13.3484,-15.7261 L 12.5212,-16.2078 L 11.7748,-16.9301
 L 11.3667,-17.5261 L 11.0753,-18.0351 L 10.6087,-19.1416 L 10.4587,-20.0871 L 10.5393,-21.0409 L 10.8457,-21.9476
 L 11.3604,-22.7548 L 12.0531,-23.4153 L 12.9645,-23.9369 L 14.3502,-25.258 L 14.9632,-27.0717 L 14.4489,-29.3956
 L 13.003,-31.9215 L 11.6819,-33.3071 L 9.86821,-33.9202 L 7.97736,-33.6201 L 7.48941,-33.3276 L 6.32812,-32.7818
 L 5.38954,-32.5938 L 4.43326,-32.636 L 3.51488,-32.9057 L 2.60743,-33.4341 L 0.770485,-33.9736 L -1.10676,-33.5976
 L -2.86207,-31.9903 L -4.32666,-29.4753 L -4.86616,-27.6383 L -4.49018,-25.7611 L -3.28488,-24.2736 L -2.78757,-23.9972
 L -1.73429,-23.2644 L -1.1022,-22.5456 L -0.660499,-21.6964 L -0.434894,-20.7661 L -0.440248,-19.3232 L -0.380062,-19.323
 L -0.384461,-18.1383 L 0.498983,-16.4398 L 2.0705,-15.3464 L 2.39677,-15.2213 L 3.18249,-14.6746 L 3.81458,-13.9558
 L 4.25627,-13.1065 L 4.48189,-12.1763 L 4.47832,-11.2191 L 4.22597,-10.2114 L 3.91401,-9.56025 L 3.61882,-9.05331
 L 2.89377,-8.09589 L 2.15002,-7.49324 L 1.28375,-7.08614 L 0.34517,-6.89816 L -0.611143,-6.94027 L -1.52952,-7.20999
 L -2.77644,-7.9361 L -2.80674,-7.88407 L -3.83032,-8.48014 L -5.74299,-8.5644 L -7.47579,-7.75008 L -7.74728,-7.53009
 L -8.61353,-7.12299 L -9.55217,-6.93498 L -10.5085,-6.97709 L -11.4268,-7.24679 L -12.2541,-7.72851 L -13.0005,-8.45084
 L -13.4085,-9.04664 L -13.7,-9.55578 L -14.1666,-10.6623 L -14.3166,-11.6077 L -14.236,-12.5616 L -13.9296,-13.4684
 L -13.4149,-14.2755 L -12.7221,-14.936 L -11.4699,-15.6528 L -11.4998,-15.705 L -10.4717,-16.2935 L -9.44244,-17.9078
 L -9.28127,-19.8156 L -9.33604,-20.1607 L -9.30351,-20.5458 L -9.60361,-22.4367 L -11.2765,-24.3391 L -12.61,-25.1157
 L -12.6403,-25.0636 L -13.6639,-25.6597 L -15.5766,-25.7439 L -17.3094,-24.9296 L -17.5808,-24.7097 L -18.4472,-24.3025
 L -19.3858,-24.1145 L -20.342,-24.1567 L -21.2604,-24.4264 L -22.1679,-24.9548 L -24.0048,-25.4943 L -25.8821,-25.1183
 L -27.6374,-23.511 L -29.102,-20.9959 L -29.6415,-19.159 L -29.2655,-17.2818 L -28.0602,-15.7943 L -27.5628,-15.5179
 L -26.5096,-14.7851 L -25.8775,-14.0663 L -25.4358,-13.217 L -25.2102,-12.2868 L -25.2156,-10.8439 L -25.1554,-10.8437
 L -25.1598,-9.65924 L -24.2765,-7.96067 L -22.7048,-6.86714 L -22.3785,-6.742 L -21.5928,-6.19535 L -20.9607,-5.47646
 L -20.519,-4.62725 L -20.2934,-3.69706 L -20.297,-2.73977 L -20.5493,-1.73221 L -20.8613,-1.08088 L -21.1565,-0.574004
 L -21.8816,0.383437 L -22.6253,0.986046 L -23.4916,1.39317 L -24.4301,1.58113 L -25.3865,1.53903 L -26.3049,1.2693
 L -27.2122,0.740922 L -29.0492,0.201407 L -30.9264,0.577368 L -32.6818,2.18466 L -34.1463,4.69974 L -34.6858,6.53669
 L -34.3099,8.41393 L -33.1046,9.90142 L -32.6072,10.1778 L -31.5539,10.9106 L -30.9219,11.6294 L -30.4802,12.4787
 L -30.2546,13.4089 L -30.2585,14.4589 L -29.8072,16.3195 L -28.543,17.7573 L -26.2734,18.4738 L -23.3629,18.4846
 L -21.5023,18.0333 L -20.0646,16.7691 L -19.379,14.9815 L -19.3884,14.4123 L -19.2804,13.1341 L -18.9739,12.2273
 L -18.4593,11.4201 L -17.7665,10.7596 L -16.5142,10.0428 L -16.5441,9.99059 L -15.5161,9.40219 L -14.4868,7.78789
 L -14.3256,5.88007 L -14.3804,5.53494 L -14.2998,4.58112 L -13.9934,3.67439 L -13.4787,2.86722 L -12.7859,2.2067
 L -11.9552,1.73121 L -10.9563,1.4459 L -10.2364,1.39047 L -9.64989,1.39266 L -8.45814,1.54187 L -7.56436,1.88463
 L -6.77867,2.43129 L -6.14658,3.15013 L -5.70489,3.99938 L -5.47927,4.92959 L -5.48464,6.37248 L -5.42446,6.37271
 L -5.42882,7.55746 L -4.54535,9.25596 L -2.97392,10.3493 L -2.64753,10.4744 L -1.86184,11.0211 L -1.22975,11.74
 L -0.788081,12.5892 L -0.562472,13.5194 L -0.566039,14.4766 L -0.818394,15.4843 L -1.13041,16.1355 L -1.42566,16.6425
 L -2.15065,17.5998 L -2.89437,18.2024 L -3.76067,18.6096 L -4.69929,18.7975 L -5.65556,18.7554 L -6.57396,18.4857
 L -7.82086,17.7595 L -7.85116,17.8116 L -8.87474,17.2155 L -10.7874,17.1313 L -12.5202,17.9456 L -12.7917,18.1656
 L -13.1414,18.3299 L -14.6289,19.5352 L -15.44,21.9352 L -15.4458,23.4784 L -15.3856,23.4786 L -15.39,24.6632
 L -14.5066,26.3617 L -12.9351,27.4551 L -12.6087,27.5803 L -11.823,28.127 L -11.1909,28.8458 L -10.7492,29.6951
 L -10.5236,30.6253 L -10.5275,31.6753 L -10.0763,33.5359 L -8.81206,34.9737 L -6.54242,35.6902 L -3.63199,35.701
 z
" stroke="black" fill="red" stroke-width="0.5"/>
<path d="
M 15.8839,-36.6439 L 16.25,-37.5278 L 15.8839,-38.4116 L 15,-38.7778 L 14.1161,-38.4116 L 13.75,-37.5278
 L 14.1161,-36.6439 L 15,-36.2778 z
M -4.11612,-36.6439 L -3.75,-37.5278 L -4.11612,-38.4116 L -5,-38.7778 L -5.88388,-38.4116 L -6.25,-37.5278
 L -5.88388,-36.6439 L -5,-36.2778 z
M -14.1161,-36.6439 L -13.75,-37.5278 L -14.1161,-38.4116 L -15,-38.7778 L -15.8839,-38.4116 L -16.25,-37.5278
 L -15.8839,-36.6439 L -15,-36.2778 z
M 5.88388,-36.6439 L 6.25,-37.5278 L 5.88388,-38.4116 L 5,-38.7778 L 4.1161,-38.4116 L 3.75,-37.5278
 L 4.1161,-36.6439 L 5,-36.2778 z
M 25.8839,-36.6439 L 26.25,-37.5278 L 25.8839,-38.4116 L 25,-38.7778 L 24.1161,-38.4116 L 23.75,-37.5278
 L 24.1161,-36.6439 L 25,-36.2778 z
M -24.1161,-36.6439 L -23.75,-37.5278 L -24.1161,-38.4116 L -25,-38.7778 L -25.8839,-38.4116 L -26.25,-37.5278
 L -25.8839,-36.6439 L -25,-36.2778 z
M -19.1161,-27.9836 L -18.75,-28.8675 L -19.1161,-29.7514 L -20,-30.1175 L -20.8839,-29.7514 L -21.25,-28.8675
 L -20.8839,-27.9836 L -20,-27.6175 z
M 30.8839,-27.9836 L 31.25,-28.8675 L 30.8839,-29.7514 L 30,-30.1175 L 29.1161,-29.7514 L 28.75,-28.8675
 L 29.1161,-27.9836 L 30,-27.6175 z
M -29.1161,-27.9836 L -28.75,-28.8675 L -29.1161,-29.7514 L -30,-30.1175 L -30.8839,-29.7514 L -31.25,-28.8675
 L -30.8839,-27.9836 L -30,-27.6175 z
M 20.8839,-27.9836 L 21.25,-28.8675 L 20.8839,-29.7514 L 20,-30.1175 L 19.1161,-29.7514 L 18.75,-28.8675
 L 19.1161,-27.9836 L 20,-27.6175 z
M 10.8839,-27.9836 L 11.25,-28.8675 L 10.8839,-29.7514 L 10,-30.1175 L 9.1161,-29.7514 L 8.75,-28.8675
 L 9.1161,-27.9836 L 10,-27.6175 z
M 0.883881,-27.9836 L 1.25,-28.8675 L 0.883881,-29.7514 L 0,-30.1175 L -0.883896,-29.7514 L -1.25,-28.8675
 L -0.883896,-27.9836 L 0,-27.6175 z
M -9.1161,-27.9836 L -8.75,-28.8675 L -9.1161,-29.7514 L -10,-30.1175 L -10.8839,-29.7514 L -11.25,-28.8675
 L -10.8839,-27.9836 L -10,-27.6175 z
M 5.88388,-19.3234 L 6.25,-20.2072 L 5.88388,-21.0911 L 5,-21.4572 L 4.1161,-21.0911 L 3.75,-20.2072
 L 4.1161,-19.3234 L 5,-18.9572 z
M -4.11612,-19.3234 L -3.75,-20.2072 L -4.11612,-21.0911 L -5,-21.4572 L -5.88388,-21.0911 L -6.25,-20.2072
 L -5.88388,-19.3234 L -5,-18.9572 z
M 25.8839,-19.3234 L 26.25,-20.2072 L 25.8839,-21.0911 L 25,-21.4572 L 24.1161,-21.0911 L 23.75,-20.2072
 L 24.1161,-19.3234 L 25,-18.9572 z
M 15.8839,-19.3234 L 16.25,-20.2072 L 15.8839,-21.0911 L 15,-21.4572 L 14.1161,-21.0911 L 13.75,-20.2072
 L 14.1161,-19.3234 L 15,-18.9572 z
M -34.1161,-19.3234 L -33.75,-20.2072 L -34.1161,-21.0911 L -35,-21.4572 L -35.8839,-21.0911 L -36.25,-20.2072
 L -35.8839,-19.3234 L -35,-18.9572 z
M 35.8839,-19.3234 L 36.25,-20.2072 L 35.8839,-21.0911 L 35,-21.4572 L 34.1161,-21.0911 L 33.75,-20.2072
 L 34.1161,-19.3234 L 35,-18.9572 z
M -24.1161,-19.3234 L -23.75,-20.2072 L -24.1161,-21.0911 L -25,-21.4572 L -25.8839,-21.0911 L -26.25,-20.2072
 L -25.8839,-19.3234 L -25,-18.9572 z
M -14.1161,-19.3234 L -13.75,-20.2072 L -14.1161,-21.0911 L -15,-21.4572 L -15.8839,-21.0911 L -16.25,-20.2072
 L -15.8839,-19.3234 L -15,-18.9572 z
M 30.8839,-10.6631 L 31.25,-11.547 L 30.8839,-12.4309 L 30,-12.797 L 29.1161,-12.4309 L 28.75,-11.547
 L 29.1161,-10.6631 L 30,-10.297 z
M 20.8839,-10.6631 L 21.25,-11.547 L 20.8839,-12.4309 L 20,-12.797 L 19.1161,-12.4309 L 18.75,-11.547
 L 19.1161,-10.6631 L 20,-10.297 z
M -19.1161,-10.6631 L -18.75,-11.547 L -19.1161,-12.4309 L -20,-12.797 L -20.8839,-12.4309 L -21.25,-11.547
 L -20.8839,-10.6631 L -20,-10.297 z
M -39.1161,-10.6631 L -38.75,-11.547 L -39.1161,-12.4309 L -40,-12.797 L -40.8839,-12.4309 L -41.25,-11.547
 L -40.8839,-10.6631 L -40,-10.297 z
M 10.8839,-10.6631 L 11.25,-11.547 L 10.8839,-12.4309 L 10,-12.797 L 9.1161,-12.4309 L 8.75,-11.547
 L 9.1161,-10.6631 L 10,-10.297 z
M -29.1161,-10.6631 L -28.75,-11.547 L -29.1161,-12.4309 L -30,-12.797 L -30.8839,-12.4309 L -31.25,-11.547
 L -30.8839,-10.6631 L -30,-10.297 z
M 0.883881,-10.6631 L 1.25,-11.547 L 0.883881,-12.4309 L 0,-12.797 L -0.883896,-12.4309 L -1.25,-11.547
 L -0.883896,-10.6631 L 0,-10.297 z
M 40.8839,-10.6631 L 41.25,-11.547 L 40.8839,-12.4309 L 40,-12.797 L 39.1161,-12.4309 L 38.75,-11.547
 L 39.1161,-10.6631 L 40,-10.297 z
M -9.1161,-10.6631 L -8.75,-11.547 L -9.1161,-12.4309 L -10,-12.797 L -10.8839,-12.4309 L -11.25,-11.547
 L -10.8839,-10.6631 L -10,-10.297 z
M 15.8839,-2.00287 L 16.25,-2.88675 L 15.8839,-3.77063 L 15,-4.13675 L 14.1161,-3.77063 L 13.75,-2.88675
 L 14.1161,-2.00287 L 15,-1.63675 z
M -4.11612,-2.00287 L -3.75,-2.88675 L -4.11612,-3.77063 L -5,-4.13675 L -5.88388,-3.77063 L -6.25,-2.88675
 L -5.88388,-2.00287 L -5,-1.63675 z
M 25.8839,-2.00287 L 26.25,-2.88675 L 25.8839,-3.77063 L 25,-4.13675 L 24.1161,-3.77063 L 23.75,-2.88675
 L 24.1161,-2.00287 L 25,-1.63675 z
M 5.88388,-2.00287 L 6.25,-2.88675 L 5.88388,-3.77063 L 5,-4.13675 L 4.1161,-3.77063 L 3.75,-2.88675
 L 4.1161,-2.00287 L 5,-1.63675 z
M -34.1161,-2.00287 L -33.75,-2.88675 L -34.1161,-3.77063 L -35,-4.13675 L -35.8839,-3.77063 L -36.25,-2.88675
 L -35.8839,-2.00287 L -35,-1.63675 z
M -24.1161,-2.00287 L -23.75,-2.88675 L -24.1161,-3.77063 L -25,-4.13675 L -25.8839,-3.77063 L -26.25,-2.88675
 L -25.8839,-2.00287 L -25,-1.63675 z
M 35.8839,-2.00287 L 36.25,-2.88675 L 35.8839,-3.77063 L 35,-4.13675 L 34.1161,-3.77063 L 33.75,-2.88675
 L 34.1161,-2.00287 L 35,-1.63675 z
M -44.1161,-2.00287 L -43.75,-2.88675 L -44.1161,-3.77063 L -45,-4.13675 L -45.8839,-3.77063 L -46.25,-2.88675
 L -45.8839,-2.00287 L -45,-1.63675 z
M -14.1161,-2.00287 L -13.75,-2.88675 L -14.1161,-3.77063 L -15,-4.13675 L -15.8839,-3.77063 L -16.25,-2.88675
 L -15.8839,-2.00287 L -15,-1.63675 z
M 45.8839,-2.00287 L 46.25,-2.88675 L 45.8839,-3.77063 L 45,-4.13675 L 44.1161,-3.77063 L 43.75,-2.88675
 L 44.1161,-2.00287 L 45,-1.63675 z
M 30.8839,6.65736 L 31.25,5.77348 L 30.8839,4.8896 L 30,4.52348 L 29.1161,4.8896 L 28.75,5.77348
 L 29.1161,6.65736 L 30,7.02348 z
M -29.1161,6.65736 L -28.75,5.77348 L -29.1161,4.8896 L -30,4.52348 L -30.8839,4.8896 L -31.25,5.77348
 L -30.8839,6.65736 L -30,7.02348 z
M -9.1161,6.65736 L -8.75,5.77348 L -9.1161,4.8896 L -10,4.52348 L -10.8839,4.8896 L -11.25,5.77348
 L -10.8839,6.65736 L -10,7.02348 z
M 10.8839,6.65736 L 11.25,5.77348 L 10.8839,4.8896 L 10,4.52348 L 9.1161,4.8896 L 8.75,5.77348
 L 9.1161,6.65736 L 10,7.02348 z
M -39.1161,6.65736 L -38.75,5.77348 L -39.1161,4.8896 L -40,4.52348 L -40.8839,4.8896 L -41.25,5.77348
 L -40.8839,6.65736 L -40,7.02348 z
M 40.8839,6.65736 L 41.25,5.77348 L 40.8839,4.8896 L 40,4.52348 L 39.1161,4.8896 L 38.75,5.77348
 L 39.1161,6.65736 L 40,7.02348 z
M 0.883881,6.65736 L 1.25,5.77348 L 0.883881,4.8896 L 0,4.52348 L -0.883896,4.8896 L -1.25,5.77348
 L -0.883896,6.65736 L 0,7.02348 z
M -19.1161,6.65736 L -18.75,5.77348 L -19.1161,4.8896 L -20,4.52348 L -20.8839,4.8896 L -21.25,5.77348
 L -20.8839,6.65736 L -20,7.02348 z
M 20.8839,6.65736 L 21.25,5.77348 L 20.8839,4.8896 L 20,4.52348 L 19.1161,4.8896 L 18.75,5.77348
 L 19.1161,6.65736 L 20,7.02348 z
M 5.88388,15.3176 L 6.25,14.4337 L 5.88388,13.5499 L 5,13.1837 L 4.1161,13.5499 L 3.75,14.4337
 L 4.1161,15.3176 L 5,15.6837 z
M -14.1161,15.3176 L -13.75,14.4337 L -14.1161,13.5499 L -15,13.1837 L -15.8839,13.5499 L -16.25,14.4337
 L -15.8839,15.3176 L -15,15.6837 z
M 25.8839,15.3176 L 26.25,14.4337 L 25.8839,13.5499 L 25,13.1837 L 24.1161,13.5499 L 23.75,14.4337
 L 24.1161,15.3176 L 25,15.6837 z
M 35.8839,15.3176 L 36.25,14.4337 L 35.8839,13.5499 L 35,13.1837 L 34.1161,13.5499 L 33.75,14.4337
 L 34.1161,15.3176 L 35,15.6837 z
M -34.1161,15.3176 L -33.75,14.4337 L -34.1161,13.5499 L -35,13.1837 L -35.8839,13.5499 L -36.25,14.4337
 L -35.8839,15.3176 L -35,15.6837 z
M -24.1161,15.3176 L -23.75,14.4337 L -24.1161,13.5499 L -25,13.1837 L -25.8839,13.5499 L -26.25,14.4337
 L -25.8839,15.3176 L -25,15.6837 z
M 15.8839,15.3176 L 16.25,14.4337 L 15.8839,13.5499 L 15,13.1837 L 14.1161,13.5499 L 13.75,14.4337
 L 14.1161,15.3176 L 15,15.6837 z
M -4.11612,15.3176 L -3.75,14.4337 L -4.11612,13.5499 L -5,13.1837 L -5.88388,13.5499 L -6.25,14.4337
 L -5.88388,15.3176 L -5,15.6837 z
M -9.1161,23.9779 L -8.75,23.094 L -9.1161,22.2101 L -10,21.844 L -10.8839,22.2101 L -11.25,23.094
 L -10.8839,23.9779 L -10,24.344 z
M 0.883881,23.9779 L 1.25,23.094 L 0.883881,22.2101 L 0,21.844 L -0.883896,22.2101 L -1.25,23.094
 L -0.883896,23.9779 L 0,24.344 z
M 10.8839,23.9779 L 11.25,23.094 L 10.8839,22.2101 L 10,21.844 L 9.1161,22.2101 L 8.75,23.094
 L 9.1161,23.9779 L 10,24.344 z
M -29.1161,23.9779 L -28.75,23.094 L -29.1161,22.2101 L -30,21.844 L -30.8839,22.2101 L -31.25,23.094
 L -30.8839,23.9779 L -30,24.344 z
M -19.1161,23.9779 L -18.75,23.094 L -19.1161,22.2101 L -20,21.844 L -20.8839,22.2101 L -21.25,23.094
 L -20.8839,23.9779 L -20,24.344 z
M 30.8839,23.9779 L 31.25,23.094 L 30.8839,22.2101 L 30,21.844 L 29.1161,22.2101 L 28.75,23.094
 L 29.1161,23.9779 L 30,24.344 z
M 20.8839,23.9779 L 21.25,23.094 L 20.8839,22.2101 L 20,21.844 L 19.1161,22.2101 L 18.75,23.094
 L 19.1161,23.9779 L 20,24.344 z
M -14.1161,32.6381 L -13.75,31.7542 L -14.1161,30.8704 L -15,30.5042 L -15.8839,30.8704 L -16.25,31.7542
 L -15.8839,32.6381 L -15,33.0042 z
M -24.1161,32.6381 L -23.75,31.7542 L -24.1161,30.8704 L -25,30.5042 L -25.8839,30.8704 L -26.25,31.7542
 L -25.8839,32.6381 L -25,33.0042 z
M -4.11612,32.6381 L -3.75,31.7542 L -4.11612,30.8704 L -5,30.5042 L -5.88388,30.8704 L -6.25,31.7542
 L -5.88388,32.6381 L -5,33.0042 z
M 5.88388,32.6381 L 6.25,31.7542 L 5.88388,30.8704 L 5,30.5042 L 4.1161,30.8704 L 3.75,31.7542
 L 4.1161,32.6381 L 5,33.0042 z
M 25.8839,32.6381 L 26.25,31.7542 L 25.8839,30.8704 L 25,30.5042 L 24.1161,30.8704 L 23.75,31.7542
 L 24.1161,32.6381 L 25,33.0042 z
M 15.8839,32.6381 L 16.25,31.7542 L 15.8839,30.8704 L 15,30.5042 L 14.1161,30.8704 L 13.75,31.7542
 L 14.1161,32.6381 L 15,33.0042 z
M 20.8839,41.2984 L 21.25,40.4145 L 20.8839,39.5306 L 20,39.1645 L 19.1161,39.5306 L 18.75,40.4145
 L 19.1161,41.2984 L 20,41.6645 z
M 0.883881,41.2984 L 1.25,40.4145 L 0.883881,39.5306 L 0,39.1645 L -0.883896,39.5306 L -1.25,40.4145
 L -0.883896,41.2984 L 0,41.6645 z
M -19.1161,41.2984 L -18.75,40.4145 L -19.1161,39.5306 L -20,39.1645 L -20.8839,39.5306 L -21.25,40.4145
 L -20.8839,41.2984 L -20,41.6645 z
M -9.1161,41.2984 L -8.75,40.4145 L -9.1161,39.5306 L -10,39.1645 L -10.8839,39.5306 L -11.25,40.4145
 L -10.8839,41.2984 L -10,41.6645 z
M 10.8839,41.2984 L 11.25,40.4145 L 10.8839,39.5306 L 10,39.1645 L 9.1161,39.5306 L 8.75,40.4145
 L 9.1161,41.2984 L 10,41.6645 z
" stroke="black" fill="black" stroke-width="0.5"/>
</svg>

