<?xml version="1.0" encoding="utf-8" standalone="no"?>
<!DOCTYPE svg PUBLIC "-//W3C//DTD SVG 1.1//EN"
  "http://www.w3.org/Graphics/SVG/1.1/DTD/svg11.dtd">
<!-- Created with matplotlib (http://matplotlib.org/) -->
<svg height="345.6pt" version="1.1" viewBox="0 0 460.8 345.6" width="460.8pt" xmlns="http://www.w3.org/2000/svg" xmlns:xlink="http://www.w3.org/1999/xlink">
 <defs>
  <style type="text/css">
*{stroke-linecap:butt;stroke-linejoin:round;}
  </style>
 </defs>
 <g id="figure_1">
  <g id="patch_1">
   <path d="M 0 345.6 
L 460.8 345.6 
L 460.8 0 
L 0 0 
z
" style="fill:#ffffff;"/>
  </g>
  <g id="axes_1">
   <g id="patch_2">
    <path clip-path="url(#p9e63f05b9a)" d="M 303.611635 176.298146 
L 293.39169 189.27922 
L 326.095513 193.99961 
L 326.095513 193.99961 
L 342.447425 196.359805 
L 330.183491 165.677268 
L 346.535402 168.037463 
L 346.535402 168.037463 
L 362.887314 170.397659 
L 350.62338 139.715122 
L 350.62338 139.715122 
L 344.491413 124.373854 
L 324.051524 150.336 
L 317.919557 134.994732 
L 317.919557 134.994732 
L 311.787591 119.653463 
L 291.347701 145.61561 
L 285.215734 130.274341 
L 285.215734 130.274341 
L 272.951801 99.591805 
L 289.303712 101.952 
L 289.303712 101.952 
L 305.655624 104.312195 
L 293.39169 73.629659 
L 293.39169 73.629659 
L 287.259723 58.28839 
L 266.819834 84.250537 
L 260.687867 68.909268 
L 260.687867 68.909268 
L 254.5559 53.568 
L 234.116011 79.530146 
L 234.116011 79.530146 
L 223.896066 92.51122 
L 256.599889 97.23161 
L 246.379945 110.212683 
L 246.379945 110.212683 
L 236.16 123.193756 
L 268.863823 127.914146 
L 258.643878 140.89522 
L 258.643878 140.89522 
L 238.203989 166.857366 
L 232.072022 151.516098 
L 232.072022 151.516098 
L 225.940055 136.174829 
L 205.500166 162.136976 
L 199.368199 146.795707 
L 199.368199 146.795707 
L 187.104266 116.113171 
L 203.456177 118.473366 
L 203.456177 118.473366 
L 219.808089 120.833561 
L 207.544155 90.151024 
L 207.544155 90.151024 
L 201.412188 74.809756 
L 180.972299 100.771902 
L 174.840332 85.430634 
L 174.840332 85.430634 
L 168.708365 70.089366 
L 148.268476 96.051512 
L 148.268476 96.051512 
L 138.048531 109.032585 
L 170.752354 113.752976 
L 160.532409 126.734049 
L 160.532409 126.734049 
L 150.312465 139.715122 
L 183.016288 144.435512 
L 172.796343 157.416585 
L 172.796343 157.416585 
L 152.356454 183.378732 
L 146.224487 168.037463 
L 146.224487 168.037463 
L 140.09252 152.696195 
L 119.652631 178.658341 
L 119.652631 178.658341 
L 109.432686 191.639415 
L 142.136509 196.359805 
L 131.916564 209.340878 
L 131.916564 209.340878 
L 121.69662 222.321951 
L 154.400443 227.042341 
L 154.400443 227.042341 
L 170.752354 229.402537 
L 158.488421 198.72 
L 174.840332 201.080195 
L 174.840332 201.080195 
L 191.192243 203.44039 
L 178.92831 172.757854 
L 195.280221 175.118049 
L 195.280221 175.118049 
L 227.984044 179.838439 
L 217.7641 192.819512 
L 217.7641 192.819512 
L 207.544155 205.800585 
L 240.247978 210.520976 
L 230.028033 223.502049 
L 230.028033 223.502049 
L 209.588144 249.464195 
L 203.456177 234.122927 
L 203.456177 234.122927 
L 197.32421 218.781659 
L 176.884321 244.743805 
L 176.884321 244.743805 
L 166.664376 257.724878 
L 199.368199 262.445268 
L 189.148255 275.426341 
L 189.148255 275.426341 
L 178.92831 288.407415 
L 211.632133 293.127805 
L 211.632133 293.127805 
L 227.984044 295.488 
L 215.720111 264.805463 
L 232.072022 267.165659 
L 232.072022 267.165659 
L 248.423934 269.525854 
L 236.16 238.843317 
L 252.511911 241.203512 
L 252.511911 241.203512 
L 285.215734 245.923902 
L 274.99579 258.904976 
L 274.99579 258.904976 
L 264.775845 271.886049 
L 297.479668 276.606439 
L 297.479668 276.606439 
L 313.831579 278.966634 
L 301.567646 248.284098 
L 317.919557 250.644293 
L 317.919557 250.644293 
L 334.271469 253.004488 
L 322.007535 222.321951 
L 322.007535 222.321951 
L 315.875568 206.980683 
L 295.435679 232.942829 
L 289.303712 217.601561 
L 289.303712 217.601561 
L 283.171745 202.260293 
L 262.731856 228.222439 
L 256.599889 212.881171 
L 256.599889 212.881171 
L 244.335956 182.198634 
L 260.687867 184.558829 
L 260.687867 184.558829 
L 277.039779 186.919024 
L 264.775845 156.236488 
L 281.127757 158.596683 
L 281.127757 158.596683 
L 313.831579 163.317073 
L 303.611635 176.298146 
z
" style="fill:#008000;"/>
   </g>
  </g>
 </g>
 <defs>
  <clipPath id="p9e63f05b9a">
   <rect height="266.112" width="278.800091" x="96.759955" y="41.472"/>
  </clipPath>
 </defs>
</svg>
