<?xml version="1.0" encoding="utf-8" standalone="no"?>
<!DOCTYPE svg PUBLIC "-//W3C//DTD SVG 1.1//EN"
  "http://www.w3.org/Graphics/SVG/1.1/DTD/svg11.dtd">
<!-- Created with matplotlib (http://matplotlib.org/) -->
<svg height="345.6pt" version="1.1" viewBox="0 0 460.8 345.6" width="460.8pt" xmlns="http://www.w3.org/2000/svg" xmlns:xlink="http://www.w3.org/1999/xlink">
 <defs>
  <style type="text/css">
*{stroke-linecap:butt;stroke-linejoin:round;}
  </style>
 </defs>
 <g id="figure_1">
  <g id="patch_1">
   <path d="M 0 345.6 
L 460.8 345.6 
L 460.8 0 
L 0 0 
z
" style="fill:#ffffff;"/>
  </g>
  <g id="axes_1">
   <g id="patch_2">
    <path clip-path="url(#pa914e6186b)" d="M 299.601861 174.607111 
L 299.327814 168.752931 
L 289.462125 175.081774 
L 289.462125 175.081774 
L 284.52928 178.246195 
L 294.943063 183.625711 
L 290.010219 186.790132 
L 290.010219 186.790132 
L 285.077374 189.954553 
L 295.491157 195.334069 
L 295.491157 195.334069 
L 300.698048 198.023827 
L 300.149954 186.315469 
L 305.356846 189.005227 
L 305.356846 189.005227 
L 310.563737 191.694985 
L 310.015643 179.986627 
L 315.222535 182.676385 
L 315.222535 182.676385 
L 325.636317 188.055901 
L 320.703473 191.220322 
L 320.703473 191.220322 
L 315.770628 194.384743 
L 326.184411 199.764259 
L 326.184411 199.764259 
L 331.391303 202.454017 
L 330.843209 190.745659 
L 336.0501 193.435417 
L 336.0501 193.435417 
L 341.256991 196.125175 
L 340.708898 184.416816 
L 340.708898 184.416816 
L 340.434851 178.562637 
L 330.569162 184.891479 
L 330.295115 179.0373 
L 330.295115 179.0373 
L 330.021068 173.183121 
L 320.155379 179.511963 
L 319.881332 173.657784 
L 319.881332 173.657784 
L 319.333238 161.949426 
L 324.54013 164.639184 
L 324.54013 164.639184 
L 329.747021 167.328942 
L 329.198927 155.620583 
L 334.405819 158.310341 
L 334.405819 158.310341 
L 344.819601 163.689857 
L 339.886757 166.854279 
L 339.886757 166.854279 
L 334.953912 170.0187 
L 345.367695 175.398216 
L 345.367695 175.398216 
L 350.574587 178.087974 
L 350.026493 166.379615 
L 355.233384 169.069373 
L 355.233384 169.069373 
L 360.440275 171.759131 
L 359.892182 160.050773 
L 359.892182 160.050773 
L 359.618135 154.196594 
L 349.752446 160.525436 
L 349.478399 154.671257 
L 349.478399 154.671257 
L 349.204352 148.817078 
L 339.338663 155.14592 
L 339.064616 149.291741 
L 339.064616 149.291741 
L 338.516522 137.583383 
L 343.723414 140.273141 
L 343.723414 140.273141 
L 348.930305 142.962899 
L 348.382211 131.25454 
L 348.382211 131.25454 
L 348.108164 125.400361 
L 338.242475 131.729203 
L 337.968429 125.875024 
L 337.968429 125.875024 
L 337.694382 120.020845 
L 327.828693 126.349687 
L 327.828693 126.349687 
L 322.895848 129.514109 
L 333.309631 134.893625 
L 328.376787 138.058046 
L 328.376787 138.058046 
L 323.443942 141.222467 
L 333.857725 146.601983 
L 328.92488 149.766404 
L 328.92488 149.766404 
L 319.059191 156.095247 
L 318.785145 150.241067 
L 318.785145 150.241067 
L 318.511098 144.386888 
L 308.645409 150.715731 
L 308.371362 144.861551 
L 308.371362 144.861551 
L 307.823268 133.153193 
L 313.030159 135.842951 
L 313.030159 135.842951 
L 318.237051 138.532709 
L 317.688957 126.824351 
L 317.688957 126.824351 
L 317.41491 120.970171 
L 307.549221 127.299014 
L 307.275174 121.444835 
L 307.275174 121.444835 
L 307.001127 115.590655 
L 297.135438 121.919498 
L 297.135438 121.919498 
L 292.202594 125.083919 
L 302.616377 130.463435 
L 297.683532 133.627856 
L 297.683532 133.627856 
L 292.750688 136.792277 
L 303.16447 142.171793 
L 298.231626 145.336215 
L 298.231626 145.336215 
L 288.365937 151.665057 
L 288.09189 145.810878 
L 288.09189 145.810878 
L 287.817843 139.956698 
L 277.952154 146.285541 
L 277.678107 140.431362 
L 277.678107 140.431362 
L 277.130014 128.723003 
L 282.336905 131.412761 
L 282.336905 131.412761 
L 287.543796 134.102519 
L 286.995703 122.394161 
L 286.995703 122.394161 
L 286.721656 116.539982 
L 276.855967 122.868824 
L 276.58192 117.014645 
L 276.58192 117.014645 
L 276.307873 111.160466 
L 266.442184 117.489308 
L 266.168137 111.635129 
L 266.168137 111.635129 
L 265.620043 99.92677 
L 270.826935 102.616528 
L 270.826935 102.616528 
L 276.033826 105.306286 
L 275.485732 93.597928 
L 280.692624 96.287686 
L 280.692624 96.287686 
L 291.106406 101.667202 
L 286.173562 104.831623 
L 286.173562 104.831623 
L 281.240717 107.996044 
L 291.6545 113.37556 
L 291.6545 113.37556 
L 296.861391 116.065319 
L 296.313298 104.35696 
L 301.520189 107.046718 
L 301.520189 107.046718 
L 306.72708 109.736476 
L 306.178987 98.028118 
L 306.178987 98.028118 
L 305.90494 92.173939 
L 296.039251 98.502781 
L 295.765204 92.648602 
L 295.765204 92.648602 
L 295.491157 86.794422 
L 285.625468 93.123265 
L 285.351421 87.269086 
L 285.351421 87.269086 
L 284.803327 75.560727 
L 290.010219 78.250485 
L 290.010219 78.250485 
L 295.21711 80.940243 
L 294.669016 69.231885 
L 294.669016 69.231885 
L 294.394969 63.377706 
L 284.52928 69.706548 
L 284.255233 63.852369 
L 284.255233 63.852369 
L 283.981186 57.99819 
L 274.115498 64.327032 
L 274.115498 64.327032 
L 269.182653 67.491453 
L 279.596436 72.870969 
L 274.663591 76.03539 
L 274.663591 76.03539 
L 269.730747 79.199812 
L 280.14453 84.579328 
L 275.211685 87.743749 
L 275.211685 87.743749 
L 265.345996 94.072591 
L 265.071949 88.218412 
L 265.071949 88.218412 
L 264.797903 82.364233 
L 254.932214 88.693075 
L 254.658167 82.838896 
L 254.658167 82.838896 
L 254.110073 71.130538 
L 259.316964 73.820296 
L 259.316964 73.820296 
L 264.523856 76.510054 
L 263.975762 64.801695 
L 263.975762 64.801695 
L 263.701715 58.947516 
L 253.836026 65.276358 
L 253.561979 59.422179 
L 253.561979 59.422179 
L 253.287932 53.568 
L 243.422243 59.896842 
L 243.422243 59.896842 
L 238.489399 63.061264 
L 248.903181 68.44078 
L 243.970337 71.605201 
L 243.970337 71.605201 
L 239.037493 74.769622 
L 249.451275 80.149138 
L 244.518431 83.313559 
L 244.518431 83.313559 
L 234.652742 89.642402 
L 234.378695 83.788222 
L 234.378695 83.788222 
L 234.104648 77.934043 
L 224.238959 84.262886 
L 224.238959 84.262886 
L 219.306115 87.427307 
L 229.719898 92.806823 
L 224.787053 95.971244 
L 224.787053 95.971244 
L 219.854209 99.135665 
L 230.267991 104.515181 
L 230.267991 104.515181 
L 235.474883 107.204939 
L 234.926789 95.496581 
L 240.13368 98.186339 
L 240.13368 98.186339 
L 245.340572 100.876097 
L 244.792478 89.167738 
L 249.999369 91.857496 
L 249.999369 91.857496 
L 260.413152 97.237012 
L 255.480307 100.401434 
L 255.480307 100.401434 
L 250.547463 103.565855 
L 260.961246 108.945371 
L 256.028401 112.109792 
L 256.028401 112.109792 
L 246.162712 118.438634 
L 245.888665 112.584455 
L 245.888665 112.584455 
L 245.614619 106.730276 
L 235.74893 113.059118 
L 235.74893 113.059118 
L 230.816085 116.22354 
L 241.229868 121.603056 
L 236.297023 124.767477 
L 236.297023 124.767477 
L 231.364179 127.931898 
L 241.777962 133.311414 
L 241.777962 133.311414 
L 246.984853 136.001172 
L 246.436759 124.292814 
L 251.643651 126.982572 
L 251.643651 126.982572 
L 256.850542 129.67233 
L 256.302448 117.963971 
L 261.50934 120.653729 
L 261.50934 120.653729 
L 271.923122 126.033245 
L 266.990278 129.197666 
L 266.990278 129.197666 
L 262.057433 132.362088 
L 272.471216 137.741604 
L 267.538372 140.906025 
L 267.538372 140.906025 
L 257.672683 147.234867 
L 257.398636 141.380688 
L 257.398636 141.380688 
L 257.124589 135.526509 
L 247.2589 141.855351 
L 247.2589 141.855351 
L 242.326056 145.019772 
L 252.739838 150.399288 
L 247.806994 153.56371 
L 247.806994 153.56371 
L 242.874149 156.728131 
L 253.287932 162.107647 
L 248.355088 165.272068 
L 248.355088 165.272068 
L 238.489399 171.60091 
L 238.215352 165.746731 
L 238.215352 165.746731 
L 237.941305 159.892552 
L 228.075616 166.221394 
L 227.801569 160.367215 
L 227.801569 160.367215 
L 227.253475 148.658857 
L 232.460367 151.348615 
L 232.460367 151.348615 
L 237.667258 154.038373 
L 237.119164 142.330014 
L 237.119164 142.330014 
L 236.845117 136.475835 
L 226.979428 142.804678 
L 226.705381 136.950498 
L 226.705381 136.950498 
L 226.431335 131.096319 
L 216.565646 137.425162 
L 216.565646 137.425162 
L 211.632801 140.589583 
L 222.046584 145.969099 
L 217.113739 149.13352 
L 217.113739 149.13352 
L 212.180895 152.297941 
L 222.594678 157.677457 
L 217.661833 160.841878 
L 217.661833 160.841878 
L 207.796144 167.170721 
L 207.522097 161.316542 
L 207.522097 161.316542 
L 207.248051 155.462362 
L 197.382362 161.791205 
L 197.108315 155.937026 
L 197.108315 155.937026 
L 196.560221 144.228667 
L 201.767112 146.918425 
L 201.767112 146.918425 
L 206.974004 149.608183 
L 206.42591 137.899825 
L 206.42591 137.899825 
L 206.151863 132.045646 
L 196.286174 138.374488 
L 196.012127 132.520309 
L 196.012127 132.520309 
L 195.73808 126.666129 
L 185.872391 132.994972 
L 185.598344 127.140793 
L 185.598344 127.140793 
L 185.050251 115.432434 
L 190.257142 118.122192 
L 190.257142 118.122192 
L 195.464033 120.81195 
L 194.915939 109.103592 
L 200.122831 111.79335 
L 200.122831 111.79335 
L 210.536614 117.172866 
L 205.603769 120.337287 
L 205.603769 120.337287 
L 200.670925 123.501708 
L 211.084707 128.881224 
L 211.084707 128.881224 
L 216.291599 131.570982 
L 215.743505 119.862624 
L 220.950396 122.552382 
L 220.950396 122.552382 
L 226.157288 125.24214 
L 225.609194 113.533782 
L 225.609194 113.533782 
L 225.335147 107.679602 
L 215.469458 114.008445 
L 215.195411 108.154266 
L 215.195411 108.154266 
L 214.921364 102.300086 
L 205.055675 108.628929 
L 204.781628 102.77475 
L 204.781628 102.77475 
L 204.233535 91.066391 
L 209.440426 93.756149 
L 209.440426 93.756149 
L 214.647317 96.445907 
L 214.099223 84.737549 
L 214.099223 84.737549 
L 213.825177 78.88337 
L 203.959488 85.212212 
L 203.685441 79.358033 
L 203.685441 79.358033 
L 203.411394 73.503853 
L 193.545705 79.832696 
L 193.545705 79.832696 
L 188.61286 82.997117 
L 199.026643 88.376633 
L 194.093799 91.541054 
L 194.093799 91.541054 
L 189.160954 94.705475 
L 199.574737 100.084991 
L 194.641893 103.249413 
L 194.641893 103.249413 
L 184.776204 109.578255 
L 184.502157 103.724076 
L 184.502157 103.724076 
L 184.22811 97.869897 
L 174.362421 104.198739 
L 174.088374 98.34456 
L 174.088374 98.34456 
L 173.54028 86.636201 
L 178.747172 89.325959 
L 178.747172 89.325959 
L 183.954063 92.015717 
L 183.405969 80.307359 
L 183.405969 80.307359 
L 183.131922 74.45318 
L 173.266233 80.782022 
L 172.992186 74.927843 
L 172.992186 74.927843 
L 172.718139 69.073664 
L 162.852451 75.402506 
L 162.852451 75.402506 
L 157.919606 78.566927 
L 168.333389 83.946443 
L 163.400544 87.110865 
L 163.400544 87.110865 
L 158.4677 90.275286 
L 168.881483 95.654802 
L 163.948638 98.819223 
L 163.948638 98.819223 
L 154.082949 105.148065 
L 153.808902 99.293886 
L 153.808902 99.293886 
L 153.534855 93.439707 
L 143.669167 99.768549 
L 143.669167 99.768549 
L 138.736322 102.932971 
L 149.150105 108.312487 
L 144.21726 111.476908 
L 144.21726 111.476908 
L 139.284416 114.641329 
L 149.698199 120.020845 
L 149.698199 120.020845 
L 154.90509 122.710603 
L 154.356996 111.002245 
L 159.563888 113.692003 
L 159.563888 113.692003 
L 164.770779 116.381761 
L 164.222685 104.673402 
L 169.429576 107.36316 
L 169.429576 107.36316 
L 179.843359 112.742676 
L 174.910515 115.907097 
L 174.910515 115.907097 
L 169.97767 119.071519 
L 180.391453 124.451035 
L 175.458609 127.615456 
L 175.458609 127.615456 
L 165.59292 133.944298 
L 165.318873 128.090119 
L 165.318873 128.090119 
L 165.044826 122.23594 
L 155.179137 128.564782 
L 155.179137 128.564782 
L 150.246292 131.729203 
L 160.660075 137.108719 
L 155.727231 140.273141 
L 155.727231 140.273141 
L 150.794386 143.437562 
L 161.208169 148.817078 
L 161.208169 148.817078 
L 166.41506 151.506836 
L 165.866967 139.798477 
L 171.073858 142.488235 
L 171.073858 142.488235 
L 176.280749 145.177993 
L 175.732655 133.469635 
L 180.939547 136.159393 
L 180.939547 136.159393 
L 191.35333 141.538909 
L 186.420485 144.70333 
L 186.420485 144.70333 
L 181.487641 147.867751 
L 191.901423 153.247267 
L 186.968579 156.411689 
L 186.968579 156.411689 
L 177.10289 162.740531 
L 176.828843 156.886352 
L 176.828843 156.886352 
L 176.554796 151.032173 
L 166.689107 157.361015 
L 166.689107 157.361015 
L 161.756263 160.525436 
L 172.170046 165.904952 
L 167.237201 169.069373 
L 167.237201 169.069373 
L 162.304357 172.233795 
L 172.718139 177.613311 
L 167.785295 180.777732 
L 167.785295 180.777732 
L 157.919606 187.106574 
L 157.645559 181.252395 
L 157.645559 181.252395 
L 157.371512 175.398216 
L 147.505823 181.727058 
L 147.231776 175.872879 
L 147.231776 175.872879 
L 146.683683 164.164521 
L 151.890574 166.854279 
L 151.890574 166.854279 
L 157.097465 169.544037 
L 156.549372 157.835678 
L 156.549372 157.835678 
L 156.275325 151.981499 
L 146.409636 158.310341 
L 146.135589 152.456162 
L 146.135589 152.456162 
L 145.861542 146.601983 
L 135.995853 152.930825 
L 135.995853 152.930825 
L 131.063009 156.095247 
L 141.476791 161.474763 
L 136.543947 164.639184 
L 136.543947 164.639184 
L 131.611102 167.803605 
L 142.024885 173.183121 
L 137.092041 176.347542 
L 137.092041 176.347542 
L 127.226352 182.676385 
L 126.952305 176.822205 
L 126.952305 176.822205 
L 126.678258 170.968026 
L 116.812569 177.296869 
L 116.812569 177.296869 
L 111.879725 180.46129 
L 122.293507 185.840806 
L 117.360663 189.005227 
L 117.360663 189.005227 
L 112.427818 192.169648 
L 122.841601 197.549164 
L 122.841601 197.549164 
L 128.048492 200.238922 
L 127.500399 188.530564 
L 132.70729 191.220322 
L 132.70729 191.220322 
L 137.914181 193.91008 
L 137.366088 182.201721 
L 142.572979 184.891479 
L 142.572979 184.891479 
L 152.986762 190.270995 
L 148.053917 193.435417 
L 148.053917 193.435417 
L 143.121073 196.599838 
L 153.534855 201.979354 
L 148.602011 205.143775 
L 148.602011 205.143775 
L 138.736322 211.472617 
L 138.462275 205.618438 
L 138.462275 205.618438 
L 138.188228 199.764259 
L 128.322539 206.093101 
L 128.322539 206.093101 
L 123.389695 209.257523 
L 133.803478 214.637039 
L 128.870633 217.80146 
L 128.870633 217.80146 
L 123.937789 220.965881 
L 134.351571 226.345397 
L 134.351571 226.345397 
L 139.558463 229.035155 
L 139.010369 217.326797 
L 144.21726 220.016555 
L 144.21726 220.016555 
L 149.424152 222.706313 
L 148.876058 210.997954 
L 154.082949 213.687712 
L 154.082949 213.687712 
L 164.496732 219.067228 
L 159.563888 222.231649 
L 159.563888 222.231649 
L 154.631043 225.396071 
L 165.044826 230.775587 
L 165.044826 230.775587 
L 170.251717 233.465345 
L 169.703623 221.756986 
L 174.910515 224.446744 
L 174.910515 224.446744 
L 180.117406 227.136502 
L 179.569312 215.428144 
L 179.569312 215.428144 
L 179.295265 209.573965 
L 169.429576 215.902807 
L 169.15553 210.048628 
L 169.15553 210.048628 
L 168.881483 204.194449 
L 159.015794 210.523291 
L 158.741747 204.669112 
L 158.741747 204.669112 
L 158.193653 192.960753 
L 163.400544 195.650511 
L 163.400544 195.650511 
L 168.607436 198.340269 
L 168.059342 186.631911 
L 173.266233 189.321669 
L 173.266233 189.321669 
L 183.680016 194.701185 
L 178.747172 197.865606 
L 178.747172 197.865606 
L 173.814327 201.030027 
L 184.22811 206.409543 
L 184.22811 206.409543 
L 189.435001 209.099302 
L 188.886907 197.390943 
L 194.093799 200.080701 
L 194.093799 200.080701 
L 199.30069 202.770459 
L 198.752596 191.062101 
L 198.752596 191.062101 
L 198.478549 185.207922 
L 188.61286 191.536764 
L 188.338814 185.682585 
L 188.338814 185.682585 
L 188.064767 179.828405 
L 178.199078 186.157248 
L 177.925031 180.303069 
L 177.925031 180.303069 
L 177.376937 168.59471 
L 182.583828 171.284468 
L 182.583828 171.284468 
L 187.79072 173.974226 
L 187.242626 162.265868 
L 192.449517 164.955626 
L 192.449517 164.955626 
L 202.8633 170.335142 
L 197.930456 173.499563 
L 197.930456 173.499563 
L 192.997611 176.663984 
L 203.411394 182.0435 
L 203.411394 182.0435 
L 208.618285 184.733258 
L 208.070191 173.0249 
L 213.277083 175.714658 
L 213.277083 175.714658 
L 218.483974 178.404416 
L 217.93588 166.696058 
L 223.142772 169.385816 
L 223.142772 169.385816 
L 233.556554 174.765332 
L 228.62371 177.929753 
L 228.62371 177.929753 
L 223.690865 181.094174 
L 234.104648 186.47369 
L 229.171804 189.638111 
L 229.171804 189.638111 
L 219.306115 195.966954 
L 219.032068 190.112774 
L 219.032068 190.112774 
L 218.758021 184.258595 
L 208.892332 190.587438 
L 208.892332 190.587438 
L 203.959488 193.751859 
L 214.37327 199.131375 
L 209.440426 202.295796 
L 209.440426 202.295796 
L 204.507581 205.460217 
L 214.921364 210.839733 
L 214.921364 210.839733 
L 220.128256 213.529491 
L 219.580162 201.821133 
L 224.787053 204.510891 
L 224.787053 204.510891 
L 229.993944 207.200649 
L 229.445851 195.49229 
L 234.652742 198.182048 
L 234.652742 198.182048 
L 245.066525 203.561564 
L 240.13368 206.725986 
L 240.13368 206.725986 
L 235.200836 209.890407 
L 245.614619 215.269923 
L 240.681774 218.434344 
L 240.681774 218.434344 
L 230.816085 224.763186 
L 230.542038 218.909007 
L 230.542038 218.909007 
L 230.267991 213.054828 
L 220.402302 219.38367 
L 220.402302 219.38367 
L 215.469458 222.548092 
L 225.883241 227.927608 
L 220.950396 231.092029 
L 220.950396 231.092029 
L 216.017552 234.25645 
L 226.431335 239.635966 
L 221.49849 242.800387 
L 221.49849 242.800387 
L 211.632801 249.12923 
L 211.358754 243.27505 
L 211.358754 243.27505 
L 211.084707 237.420871 
L 201.219018 243.749714 
L 200.944972 237.895534 
L 200.944972 237.895534 
L 200.396878 226.187176 
L 205.603769 228.876934 
L 205.603769 228.876934 
L 210.81066 231.566692 
L 210.262567 219.858334 
L 210.262567 219.858334 
L 209.98852 214.004154 
L 200.122831 220.332997 
L 199.848784 214.478818 
L 199.848784 214.478818 
L 199.574737 208.624638 
L 189.709048 214.953481 
L 189.709048 214.953481 
L 184.776204 218.117902 
L 195.189986 223.497418 
L 190.257142 226.661839 
L 190.257142 226.661839 
L 185.324297 229.82626 
L 195.73808 235.205776 
L 190.805236 238.370198 
L 190.805236 238.370198 
L 180.939547 244.69904 
L 180.6655 238.844861 
L 180.6655 238.844861 
L 180.391453 232.990681 
L 170.525764 239.319524 
L 170.525764 239.319524 
L 165.59292 242.483945 
L 176.006702 247.863461 
L 171.073858 251.027882 
L 171.073858 251.027882 
L 166.141013 254.192303 
L 176.554796 259.571819 
L 176.554796 259.571819 
L 181.761688 262.261578 
L 181.213594 250.553219 
L 186.420485 253.242977 
L 186.420485 253.242977 
L 191.627376 255.932735 
L 191.079283 244.224377 
L 196.286174 246.914135 
L 196.286174 246.914135 
L 206.699957 252.293651 
L 201.767112 255.458072 
L 201.767112 255.458072 
L 196.834268 258.622493 
L 207.248051 264.002009 
L 202.315206 267.16643 
L 202.315206 267.16643 
L 192.449517 273.495273 
L 192.17547 267.641094 
L 192.17547 267.641094 
L 191.901423 261.786914 
L 182.035735 268.115757 
L 182.035735 268.115757 
L 177.10289 271.280178 
L 187.516673 276.659694 
L 182.583828 279.824115 
L 182.583828 279.824115 
L 177.650984 282.988536 
L 188.064767 288.368052 
L 188.064767 288.368052 
L 193.271658 291.05781 
L 192.723564 279.349452 
L 197.930456 282.03921 
L 197.930456 282.03921 
L 203.137347 284.728968 
L 202.589253 273.02061 
L 207.796144 275.710368 
L 207.796144 275.710368 
L 218.209927 281.089884 
L 213.277083 284.254305 
L 213.277083 284.254305 
L 208.344238 287.418726 
L 218.758021 292.798242 
L 218.758021 292.798242 
L 223.964912 295.488 
L 223.416819 283.779642 
L 228.62371 286.4694 
L 228.62371 286.4694 
L 233.830601 289.159158 
L 233.282507 277.450799 
L 233.282507 277.450799 
L 233.00846 271.59662 
L 223.142772 277.925462 
L 222.868725 272.071283 
L 222.868725 272.071283 
L 222.594678 266.217104 
L 212.728989 272.545946 
L 212.454942 266.691767 
L 212.454942 266.691767 
L 211.906848 254.983409 
L 217.113739 257.673167 
L 217.113739 257.673167 
L 222.320631 260.362925 
L 221.772537 248.654566 
L 226.979428 251.344324 
L 226.979428 251.344324 
L 237.393211 256.72384 
L 232.460367 259.888262 
L 232.460367 259.888262 
L 227.527522 263.052683 
L 237.941305 268.432199 
L 237.941305 268.432199 
L 243.148196 271.121957 
L 242.600102 259.413598 
L 247.806994 262.103356 
L 247.806994 262.103356 
L 253.013885 264.793114 
L 252.465791 253.084756 
L 252.465791 253.084756 
L 252.191744 247.230577 
L 242.326056 253.559419 
L 242.052009 247.70524 
L 242.052009 247.70524 
L 241.777962 241.851061 
L 231.912273 248.179903 
L 231.638226 242.325724 
L 231.638226 242.325724 
L 231.090132 230.617366 
L 236.297023 233.307124 
L 236.297023 233.307124 
L 241.503915 235.996882 
L 240.955821 224.288523 
L 246.162712 226.978281 
L 246.162712 226.978281 
L 256.576495 232.357797 
L 251.643651 235.522218 
L 251.643651 235.522218 
L 246.710806 238.68664 
L 257.124589 244.066156 
L 257.124589 244.066156 
L 262.33148 246.755914 
L 261.783386 235.047555 
L 266.990278 237.737313 
L 266.990278 237.737313 
L 272.197169 240.427071 
L 271.649075 228.718713 
L 276.855967 231.408471 
L 276.855967 231.408471 
L 287.269749 236.787987 
L 282.336905 239.952408 
L 282.336905 239.952408 
L 277.404061 243.116829 
L 287.817843 248.496345 
L 282.884999 251.660767 
L 282.884999 251.660767 
L 273.01931 257.989609 
L 272.745263 252.13543 
L 272.745263 252.13543 
L 272.471216 246.28125 
L 262.605527 252.610093 
L 262.605527 252.610093 
L 257.672683 255.774514 
L 268.086465 261.15403 
L 263.153621 264.318451 
L 263.153621 264.318451 
L 258.220777 267.482872 
L 268.634559 272.862388 
L 268.634559 272.862388 
L 273.841451 275.552147 
L 273.293357 263.843788 
L 278.500248 266.533546 
L 278.500248 266.533546 
L 283.70714 269.223304 
L 283.159046 257.514946 
L 288.365937 260.204704 
L 288.365937 260.204704 
L 298.77972 265.58422 
L 293.846875 268.748641 
L 293.846875 268.748641 
L 288.914031 271.913062 
L 299.327814 277.292578 
L 299.327814 277.292578 
L 304.534705 279.982336 
L 303.986611 268.273978 
L 309.193503 270.963736 
L 309.193503 270.963736 
L 314.400394 273.653494 
L 313.8523 261.945135 
L 313.8523 261.945135 
L 313.578253 256.090956 
L 303.712564 262.419799 
L 303.438517 256.565619 
L 303.438517 256.565619 
L 303.16447 250.71144 
L 293.298782 257.040283 
L 293.024735 251.186103 
L 293.024735 251.186103 
L 292.476641 239.477745 
L 297.683532 242.167503 
L 297.683532 242.167503 
L 302.890424 244.857261 
L 302.34233 233.148903 
L 307.549221 235.838661 
L 307.549221 235.838661 
L 317.963004 241.218177 
L 313.030159 244.382598 
L 313.030159 244.382598 
L 308.097315 247.547019 
L 318.511098 252.926535 
L 318.511098 252.926535 
L 323.717989 255.616293 
L 323.169895 243.907935 
L 328.376787 246.597693 
L 328.376787 246.597693 
L 333.583678 249.287451 
L 333.035584 237.579092 
L 333.035584 237.579092 
L 332.761537 231.724913 
L 322.895848 238.053755 
L 322.621801 232.199576 
L 322.621801 232.199576 
L 322.347754 226.345397 
L 312.482066 232.674239 
L 312.208019 226.82006 
L 312.208019 226.82006 
L 311.659925 215.111702 
L 316.866816 217.80146 
L 316.866816 217.80146 
L 322.073708 220.491218 
L 321.525614 208.782859 
L 321.525614 208.782859 
L 321.251567 202.92868 
L 311.385878 209.257523 
L 311.111831 203.403343 
L 311.111831 203.403343 
L 310.837784 197.549164 
L 300.972095 203.878007 
L 300.972095 203.878007 
L 296.039251 207.042428 
L 306.453033 212.421944 
L 301.520189 215.586365 
L 301.520189 215.586365 
L 296.587345 218.750786 
L 307.001127 224.130302 
L 302.068283 227.294723 
L 302.068283 227.294723 
L 292.202594 233.623566 
L 291.928547 227.769387 
L 291.928547 227.769387 
L 291.6545 221.915207 
L 281.788811 228.24405 
L 281.514764 222.389871 
L 281.514764 222.389871 
L 280.96667 210.681512 
L 286.173562 213.37127 
L 286.173562 213.37127 
L 291.380453 216.061028 
L 290.832359 204.35267 
L 290.832359 204.35267 
L 290.558312 198.498491 
L 280.692624 204.827333 
L 280.418577 198.973154 
L 280.418577 198.973154 
L 280.14453 193.118974 
L 270.278841 199.447817 
L 270.278841 199.447817 
L 265.345996 202.612238 
L 275.759779 207.991754 
L 270.826935 211.156175 
L 270.826935 211.156175 
L 265.89409 214.320596 
L 276.307873 219.700112 
L 271.375028 222.864534 
L 271.375028 222.864534 
L 261.50934 229.193376 
L 261.235293 223.339197 
L 261.235293 223.339197 
L 260.961246 217.485018 
L 251.095557 223.81386 
L 250.82151 217.959681 
L 250.82151 217.959681 
L 250.273416 206.251322 
L 255.480307 208.94108 
L 255.480307 208.94108 
L 260.687199 211.630838 
L 260.139105 199.92248 
L 260.139105 199.92248 
L 259.865058 194.068301 
L 249.999369 200.397143 
L 249.725322 194.542964 
L 249.725322 194.542964 
L 249.451275 188.688785 
L 239.585586 195.017627 
L 239.31154 189.163448 
L 239.31154 189.163448 
L 238.763446 177.45509 
L 243.970337 180.144848 
L 243.970337 180.144848 
L 249.177228 182.834606 
L 248.629135 171.126247 
L 253.836026 173.816005 
L 253.836026 173.816005 
L 264.249809 179.195521 
L 259.316964 182.359942 
L 259.316964 182.359942 
L 254.38412 185.524364 
L 264.797903 190.90388 
L 264.797903 190.90388 
L 270.004794 193.593638 
L 269.4567 181.885279 
L 274.663591 184.575037 
L 274.663591 184.575037 
L 279.870483 187.264795 
L 279.322389 175.556437 
L 279.322389 175.556437 
L 279.048342 169.702258 
L 269.182653 176.0311 
L 268.908606 170.176921 
L 268.908606 170.176921 
L 268.634559 164.322742 
L 258.76887 170.651584 
L 258.494823 164.797405 
L 258.494823 164.797405 
L 257.94673 153.089046 
L 263.153621 155.778804 
L 263.153621 155.778804 
L 268.360512 158.468562 
L 267.812419 146.760204 
L 273.01931 149.449962 
L 273.01931 149.449962 
L 283.433093 154.829478 
L 278.500248 157.993899 
L 278.500248 157.993899 
L 273.567404 161.15832 
L 283.981186 166.537836 
L 283.981186 166.537836 
L 289.188078 169.227595 
L 288.639984 157.519236 
L 293.846875 160.208994 
L 293.846875 160.208994 
L 299.053767 162.898752 
L 298.505673 151.190394 
L 303.712564 153.880152 
L 303.712564 153.880152 
L 314.126347 159.259668 
L 309.193503 162.424089 
L 309.193503 162.424089 
L 304.260658 165.58851 
L 314.674441 170.968026 
L 309.741596 174.132447 
L 309.741596 174.132447 
L 299.875907 180.46129 
L 299.601861 174.607111 
z
" style="fill:#008000;"/>
   </g>
  </g>
 </g>
 <defs>
  <clipPath id="pa914e6186b">
   <rect height="266.112" width="273.416606" x="99.451697" y="41.472"/>
  </clipPath>
 </defs>
</svg>
